{
  "accessors": [
    {
      "bufferView": 2,
      "componentType": 5126,
      "count": 2551,
      "max": [
        11.790233612060547,
        10.919230461120605,
        12.915858268737793
      ],
      "min": [
        0.0,
        0.0,
        0.0
      ],
      "type": "VEC3"
    },
    {
      "bufferView": 2,
      "byteOffset": 30612,
      "componentType": 5126,
      "count": 2551,
      "max": [
        0.9947052597999573,
        0.9996877908706665,
        0.9999715089797974
      ],
      "min": [
        -0.9993340969085693,
        -0.9634915590286255,
        -0.9992360472679138
      ],
      "type": "VEC3"
    },
    {
      "bufferView": 3,
      "componentType": 5126,
      "count": 2551,
      "max": [
        0.9996057748794556,
        0.999068558216095,
        0.998820960521698,
        1.0
      ],
      "min": [
        -0.9994004368782043,
        -0.9975338578224182,
        -0.9998170733451843,
        -1.0
      ],
      "type": "VEC4"
    },
    {
      "bufferView": 1,
      "componentType": 5126,
      "count": 2551,
      "max": [
        0.549830973148346,
        0.9371079802513123
      ],
      "min": [
        0.04220699891448021,
        0.059992000460624695
      ],
      "type": "VEC2"
    },
    {
      "bufferView": 0,
      "componentType": 5125,
      "count": 6486,
      "type": "SCALAR"
    }
  ],
  "asset": {
    "extras": {
      "author": "toAflame (https://sketchfab.com/toAflame)",
      "license": "CC-BY-4.0 (http://creativecommons.org/licenses/by/4.0/)",
      "source": "https://sketchfab.com/3d-models/nz-flax-10ec8061ccc04a9a92760ed1fff3d7eb",
      "title": "NZ Flax"
    },
    "generator": "Sketchfab-12.68.0",
    "version": "2.0"
  },
  "bufferViews": [
    {
      "buffer": 0,
      "byteLength": 25944,
      "name": "floatBufferViews",
      "target": 34963
    },
    {
      "buffer": 0,
      "byteLength": 20408,
      "byteOffset": 25944,
      "byteStride": 8,
      "name": "floatBufferViews",
      "target": 34962
    },
    {
      "buffer": 0,
      "byteLength": 61224,
      "byteOffset": 46352,
      "byteStride": 12,
      "name": "floatBufferViews",
      "target": 34962
    },
    {
      "buffer": 0,
      "byteLength": 40816,
      "byteOffset": 107576,
      "byteStride": 16,
      "name": "floatBufferViews",
      "target": 34962
    }
  ],
  "buffers": [
    {
      "byteLength": 148392,
      "uri": "scene.bin"
    }
  ],
  "images": [
    {
      "uri": "textures/material_0_baseColor.png"
    },
    {
      "uri": "textures/material_0_metallicRoughness.png"
    },
    {
      "uri": "textures/material_0_normal.png"
    }
  ],
  "materials": [
    {
      "alphaMode": "BLEND",
      "doubleSided": true,
      "name": "material_0",
      "normalTexture": {
        "index": 2
      },
      "pbrMetallicRoughness": {
        "baseColorTexture": {
          "index": 0
        },
        "metallicFactor": 0.0,
        "metallicRoughnessTexture": {
          "index": 1
        }
      }
    }
  ],
  "meshes": [
    {
      "name": "Object_0",
      "primitives": [
        {
          "attributes": {
            "NORMAL": 1,
            "POSITION": 0,
            "TANGENT": 2,
            "TEXCOORD_0": 3
          },
          "indices": 4,
          "material": 0,
          "mode": 4
        }
      ]
    }
  ],
  "nodes": [
    {
      "children": [
        1
      ],
      "matrix": [
        0.23086467385292053,
        0.0,
        0.0,
        0.0,
        0.0,
        -0.23086467385292053,
        -1.0252451059363589e-16,
        0.0,
        0.0,
        1.0252451059363589e-16,
        -0.23086467385292053,
        0.0,
        0.0,
        -4.45494556427002,
        5.40841245651245,
        1.0
      ],
      "name": "Sketchfab_model"
    },
    {
      "children": [
        2
      ],
      "matrix": [
        1.0,
        0.0,
        0.0,
        0.0,
        0.0,
        1.0,
        0.0,
        0.0,
        0.0,
        0.0,
        1.0,
        0.0,
        -6.576026916503906,
        -10.391298294067383,
        -5.981203079223633,
        1.0
      ],
      "name": "7dc32d3a8b2647988ad6ce6b6c7c6275.obj.cleaner.gles"
    },
    {
      "children": [
        3
      ],
      "name": "Object_2"
    },
    {
      "mesh": 0,
      "name": "Object_3"
    }
  ],
  "samplers": [
    {
      "magFilter": 9729,
      "minFilter": 9987,
      "wrapS": 10497,
      "wrapT": 10497
    }
  ],
  "scene": 0,
  "scenes": [
    {
      "name": "Sketchfab_Scene",
      "nodes": [
        0
      ]
    }
  ],
  "textures": [
    {
      "sampler": 0,
      "source": 0
    },
    {
      "sampler": 0,
      "source": 1
    },
    {
      "sampler": 0,
      "source": 2
    }
  ]
}
